<svg width="1377" height="1132" viewBox="0 0 1377 1132" fill="none" xmlns="http://www.w3.org/2000/svg">
<mask id="mask0_272_1362" style="mask-type:alpha" maskUnits="userSpaceOnUse" x="0" y="0" width="1377" height="1132">
<rect width="1377" height="1132" fill="#D9D9D9"/>
</mask>
<g mask="url(#mask0_272_1362)">
<path d="M102.44 -4.15527C318.44 67.8447 224.44 63.8447 294.026 270.243C335.595 393.539 477.3 30.546 517.026 243.243C565.026 500.243 585.44 251.845 788.44 329.845C991.44 407.845 1070.44 369.845 1108.44 287.845C1175.03 144.162 842.441 175.845 1268.44 -4.15527" stroke="url(#paint0_linear_272_1362)" stroke-width="10"/>
<path d="M441.171 831.861C457.108 853.839 471.261 868.671 484.161 877.579C497.053 886.481 508.667 889.451 519.558 887.757C530.464 886.06 540.731 879.675 550.895 869.693C561.057 859.711 571.079 846.17 581.495 830.23C590.221 816.877 599.211 801.861 608.787 785.867C610.641 782.77 612.517 779.637 614.417 776.472C626.129 756.965 638.757 736.264 652.834 715.561C680.986 674.156 714.945 632.724 758.988 600.787C803.032 568.85 852.966 549.45 901.069 535.559C925.122 528.614 948.723 523.045 970.904 517.975C974.503 517.153 978.064 516.344 981.583 515.544C999.761 511.413 1016.83 507.535 1032.23 503.391C1050.62 498.445 1066.6 493.128 1079.25 486.571C1091.9 480.013 1101.16 472.238 1106.16 462.4C1111.15 452.574 1111.94 440.612 1107.49 425.593C1103.03 410.563 1093.33 392.501 1077.39 370.523C949.939 194.755 704.194 155.541 528.507 282.935C352.82 410.33 313.718 656.092 441.171 831.861Z" fill="white" fill-opacity="0.44" stroke="#FF8015"/>
<path opacity="0.5" d="M344.309 1014.98C368.035 1047.7 389.121 1069.8 408.358 1083.07C427.585 1096.34 444.939 1100.79 461.236 1098.25C477.546 1095.7 492.883 1086.15 508.041 1071.27C523.198 1056.39 538.138 1036.2 553.659 1012.47C566.662 992.578 580.06 970.214 594.327 946.399C597.089 941.788 599.884 937.123 602.715 932.41C620.164 903.365 638.976 872.545 659.943 841.723C701.877 780.081 752.445 718.41 818.012 670.865C883.579 623.321 957.913 594.424 1029.54 573.724C1065.35 563.374 1100.49 555.072 1133.52 547.514C1138.88 546.288 1144.18 545.081 1149.42 543.888C1176.49 537.73 1201.91 531.946 1224.85 525.768C1252.24 518.393 1276.07 510.465 1294.92 500.684C1313.78 490.903 1327.62 479.293 1335.11 464.58C1342.59 449.88 1343.76 432.005 1337.12 409.605C1330.48 387.195 1316.03 360.285 1292.3 327.564C1102.53 65.8555 736.477 7.58054 474.695 197.404C212.914 387.228 154.538 753.267 344.309 1014.98Z" stroke="#FF8015"/>
</g>
<defs>
<linearGradient id="paint0_linear_272_1362" x1="1281.03" y1="125.262" x2="-21.1895" y2="-267.738" gradientUnits="userSpaceOnUse">
<stop stop-color="#9CC621"/>
<stop offset="1" stop-color="#FF8015" stop-opacity="0"/>
</linearGradient>
</defs>
</svg>
